HIERARCHY
ROOT Hips
{
	OFFSET 0.000000 0.000000 0.000000
	CHANNELS 6 Xposition Yposition Zposition Xrotation Yrotation Zrotation
	JOINT LeftUpLeg_virtual
	{
		OFFSET 0.000000 0.000000 0.000000
		CHANNELS 3 Xrotation Yrotation Zrotation
		JOINT LeftUpLeg
		{
			OFFSET 13.026900 -6.336304 -1.092800
			CHANNELS 3 Xrotation Yrotation Zrotation
			JOINT LeftLeg
			{
				OFFSET 0.524474 -46.096886 9.782700
				CHANNELS 3 Xrotation Yrotation Zrotation
				JOINT LeftFoot
				{
					OFFSET -0.524474 -53.427422 -12.948200
					CHANNELS 3 Xrotation Yrotation Zrotation
					JOINT LeftToeBase
					{
						OFFSET 0.192200 -14.009700 16.364100
						CHANNELS 3 Xrotation Yrotation Zrotation
						JOINT LeftToe_End
						{
							OFFSET -1.784700 -0.561700 9.474800
							CHANNELS 3 Xrotation Yrotation Zrotation
							End Site
							{
								OFFSET 0 0 0
							}
						}
					}
				}
			}
		}
	}
	JOINT RightUpLeg_virtual
	{
		OFFSET 0.000000 0.000000 0.000000
		CHANNELS 3 Xrotation Yrotation Zrotation
		JOINT RightUpLeg
		{
			OFFSET -12.883000 -6.336304 -1.092800
			CHANNELS 3 Xrotation Yrotation Zrotation
			JOINT RightLeg
			{
				OFFSET -0.524587 -46.096825 9.782800
				CHANNELS 3 Xrotation Yrotation Zrotation
				JOINT RightFoot
				{
					OFFSET 0.524587 -53.427383 -12.948300
					CHANNELS 3 Xrotation Yrotation Zrotation
					JOINT RightToeBase
					{
						OFFSET -0.192200 -14.009700 16.364100
						CHANNELS 3 Xrotation Yrotation Zrotation
						JOINT RightToe_End
						{
							OFFSET 1.784700 -0.561700 9.474800
							CHANNELS 3 Xrotation Yrotation Zrotation
							End Site
							{
								OFFSET 0 0 0
							}
						}
					}
				}
			}
		}
	}
	JOINT Spine_virtual
	{
		OFFSET 0.000000 0.000000 0.000000
		CHANNELS 3 Xrotation Yrotation Zrotation
		JOINT Spine
		{
			OFFSET 0.072000 7.257294 -0.789700
			CHANNELS 3 Xrotation Yrotation Zrotation
			JOINT Spine1
			{
				OFFSET 0.000000 12.508769 -0.658067
				CHANNELS 3 Xrotation Yrotation Zrotation
				JOINT Spine1_split
				{
					OFFSET 0.000000 12.508769 -0.658067
					CHANNELS 3 Xrotation Yrotation Zrotation
					JOINT Spine2
					{
						OFFSET 0.000000 12.508769 -0.658067
						CHANNELS 3 Xrotation Yrotation Zrotation
						JOINT Neck_virtual
						{
							OFFSET 0.000000 0.000000 0.000000
							CHANNELS 3 Xrotation Yrotation Zrotation
							JOINT Neck
							{
								OFFSET 0.000000 14.033295 7.520400
								CHANNELS 3 Xrotation Yrotation Zrotation
								JOINT Head
								{
									OFFSET 0.000000 8.198502 5.703100
									CHANNELS 3 Xrotation Yrotation Zrotation
									JOINT HeadTop_End
									{
										OFFSET 0.000000 17.760803 13.332701
										CHANNELS 3 Xrotation Yrotation Zrotation
										End Site
										{
											OFFSET 0 0 0
										}
									}
								}
							}
						}
						JOINT LeftShoulder_virtual
						{
							OFFSET 0.000000 0.000000 0.000000
							CHANNELS 3 Xrotation Yrotation Zrotation
							JOINT LeftShoulder
							{
								OFFSET 6.292450 5.785301 -0.669000
								CHANNELS 3 Xrotation Yrotation Zrotation
								JOINT LeftShoulder_split
								{
									OFFSET 6.292450 5.785301 -0.669000
									CHANNELS 3 Xrotation Yrotation Zrotation
									JOINT LeftArm
									{
										OFFSET 13.907140 -6.093903 1.965100
										CHANNELS 3 Xrotation Yrotation Zrotation
										JOINT LeftForeArm
										{
											OFFSET 34.140198 0.000000 0.000000
											CHANNELS 3 Xrotation Yrotation Zrotation
											JOINT LeftHand
											{
												OFFSET 40.960209 0.000000 0.000000
												CHANNELS 3 Xrotation Yrotation Zrotation
												End Site
												{
													OFFSET 0 0 0
												}
											}
										}
									}
								}
							}
						}
						JOINT RightShoulder_virtual
						{
							OFFSET 0.000000 0.000000 0.000000
							CHANNELS 3 Xrotation Yrotation Zrotation
							JOINT RightShoulder
							{
								OFFSET -6.292450 5.785301 -0.669000
								CHANNELS 3 Xrotation Yrotation Zrotation
								JOINT RightShoulder_split
								{
									OFFSET -6.292450 5.785301 -0.669000
									CHANNELS 3 Xrotation Yrotation Zrotation
									JOINT RightArm
									{
										OFFSET -13.907140 -6.093903 1.965100
										CHANNELS 3 Xrotation Yrotation Zrotation
										JOINT RightForeArm
										{
											OFFSET -34.140198 0.000000 0.000000
											CHANNELS 3 Xrotation Yrotation Zrotation
											JOINT RightHand
											{
												OFFSET -40.960209 0.000000 0.000000
												CHANNELS 3 Xrotation Yrotation Zrotation
												End Site
												{
													OFFSET 0 0 0
												}
											}
										}
									}
								}
							}
						}
					}
				}
			}
		}
	}
}
MOTION
Frames: 10
Frame Time: 0.03333333
-0.098207 87.804214 2.731808 0.000000 0.000000 0.000000 5.697153 -4.636651 -21.378974 -71.195365 18.982071 19.146700 93.191128 -2.143369 5.464470 17.878145 1.429063 19.962707 -0.540935 -1.066112 -2.624593 0.000000 0.000000 0.000000 3.198015 -4.735182 -21.432854 -10.744865 -9.224581 -10.875930 49.164504 5.502445 4.786914 12.727947 14.681495 -6.381928 -40.504582 1.992635 -1.123749 0.000000 0.000000 0.000000 -0.086544 0.196514 -19.812381 5.417905 5.006828 2.446052 2.723099 2.192061 1.513589 1.135741 2.243475 0.807044 0.000000 0.000000 0.000000 1.861899 1.120017 2.664525 -7.123971 2.672845 -3.056432 -14.952870 6.488608 3.237513 0.000000 0.000000 0.000000 2.509490 1.697913 1.458613 -0.956549 -6.244650 -5.461588 -1.036254 1.226991 -2.184206 62.763305 -16.892364 -41.587560 10.211865 -76.281363 10.102651 0.000000 0.000000 0.000000 3.753599 2.243147 2.128134 2.926507 -5.129079 8.252620 7.679813 4.370261 -5.860412 -15.422253 21.737769 54.936646 7.988284 77.913081 -7.954706 0.000000 0.000000 0.000000 
0.080537 90.475754 18.880409 0.000000 0.000000 0.000000 2.971031 -7.323614 -21.743945 -74.290622 17.653488 18.413072 77.384049 0.615520 2.522047 18.528447 3.458905 18.520085 0.027850 -1.034426 -2.316426 0.000000 0.000000 0.000000 2.643468 -9.414264 -21.968057 -5.720868 -10.177095 -11.338791 48.211362 6.282072 4.187125 16.461342 15.387127 -0.777134 -40.631597 2.138292 -1.551896 0.000000 0.000000 0.000000 0.969130 -2.704951 -20.455911 3.345842 6.375845 2.713024 2.513457 2.667148 1.189151 0.858109 4.608046 0.074525 0.000000 0.000000 0.000000 1.856717 1.629487 2.477227 -6.307651 2.145082 -2.860151 -15.726152 7.291851 3.958758 0.000000 0.000000 0.000000 2.264924 2.315519 1.557614 -0.768764 -4.162221 -4.525059 -0.877617 3.000586 -2.179916 65.520666 -14.354822 -40.601315 8.905659 -79.249278 8.112403 0.000000 0.000000 0.000000 2.737409 2.602955 1.778892 2.118692 -3.631810 7.135048 6.705296 5.223857 -6.341961 -23.109390 27.071065 59.102822 68.625035 88.837019 -69.557806 0.000000 0.000000 0.000000 
1.109948 93.619598 38.663761 0.000000 0.000000 0.000000 1.474836 -9.065662 -21.076577 -72.216799 13.664978 12.551283 57.375939 3.607612 1.075964 18.045249 5.663307 16.346511 0.403158 -1.060655 -2.008054 0.000000 0.000000 0.000000 3.005375 -10.372073 -21.341809 2.067754 -8.698232 -11.144148 46.188034 6.889044 2.678920 19.305648 15.106924 5.422575 -38.562206 2.091943 -1.334081 0.000000 0.000000 0.000000 2.090081 -4.559131 -19.992850 1.614951 9.011815 2.642851 2.356582 3.718189 0.887753 0.748319 4.673376 -0.190938 0.000000 0.000000 0.000000 1.718033 2.662667 2.088150 -5.238339 1.324194 -1.875113 -15.818891 8.755781 4.230737 0.000000 0.000000 0.000000 1.871764 3.520810 1.498193 -0.750301 -1.455525 -3.617742 -0.883713 3.113134 -1.385830 67.578957 -12.057614 -41.997071 7.277252 -83.058215 5.835934 0.000000 0.000000 0.000000 2.076647 3.581091 1.271760 1.435202 -1.790484 6.146543 6.653671 3.650979 -5.873924 -29.056154 32.782692 63.089050 176.108095 78.970504 -177.921292 0.000000 0.000000 0.000000 
3.179200 94.901703 59.574471 0.000000 0.000000 0.000000 0.750169 -8.713724 -19.686214 -66.585793 8.334756 4.036167 41.633087 6.137948 0.877263 15.896135 8.123012 15.017728 0.530955 -1.121209 -1.697500 0.000000 0.000000 0.000000 4.321496 -7.416546 -19.811071 8.913259 -5.767129 -10.998615 45.911599 6.464982 0.707059 19.778836 11.632967 8.458771 -33.248210 1.945885 -0.728879 0.000000 0.000000 0.000000 1.882176 -3.978224 -18.880818 1.092734 11.944311 2.040299 2.397670 4.808067 0.743320 1.086134 3.050183 0.241356 0.000000 0.000000 0.000000 1.409212 3.670988 1.688153 -4.191871 0.814262 -0.420195 -15.178091 10.781615 4.042173 0.000000 0.000000 0.000000 1.561370 4.692086 1.346889 -0.809023 0.876904 -3.137456 -0.164122 2.294542 -0.702952 66.809666 -11.134095 -45.100036 3.945897 -85.896063 2.330310 0.000000 0.000000 0.000000 1.896081 4.591106 0.746995 0.852170 -0.208415 5.771087 7.596613 1.287145 -4.226123 -28.751968 36.509738 64.577874 177.807309 71.175195 179.833471 0.000000 0.000000 0.000000 
6.158405 93.685272 80.444122 0.000000 0.000000 0.000000 0.054185 -5.536716 -17.661585 -60.228226 3.405971 -4.126320 35.036627 7.789253 0.745156 10.923713 10.205427 15.581053 0.356215 -0.983833 -1.408037 0.000000 0.000000 0.000000 5.756712 -1.740643 -18.124732 10.866473 -2.306486 -11.293479 51.276044 4.675091 -1.066115 18.275886 4.520270 7.013607 -24.751038 1.818180 0.034562 0.000000 0.000000 0.000000 0.741321 -0.128758 -17.237400 1.923199 13.869492 0.952220 2.714112 5.424438 0.683580 0.447669 1.779532 0.607015 0.000000 0.000000 0.000000 1.033205 4.076663 1.376061 -3.342891 0.807016 0.876104 -13.906590 13.035839 3.532588 0.000000 0.000000 0.000000 1.437010 5.174001 1.079931 -0.868414 2.109611 -3.262469 1.241912 1.491674 -0.563217 61.867280 -11.873951 -48.560668 3.243163 -85.749043 2.023819 0.000000 0.000000 0.000000 2.109073 5.020641 0.352943 0.412278 0.772056 6.213296 8.764135 0.301596 -2.072630 -20.237806 36.719285 62.697086 177.605655 68.659254 -179.990129 0.000000 0.000000 0.000000 
9.986368 90.270706 100.685516 0.000000 0.000000 0.000000 -1.244310 -0.925214 -15.487859 -53.118426 0.826897 -9.941890 38.402592 8.378556 -0.061220 3.191462 11.162731 17.943375 -1.183754 -0.566603 -1.318483 0.000000 0.000000 0.000000 5.711928 5.903006 -17.065900 4.960176 1.434921 -11.902461 63.847454 2.058697 -2.162365 15.889412 -4.121151 2.575672 -14.933135 1.741405 0.677781 0.000000 0.000000 0.000000 -1.610128 6.094645 -14.839281 3.543498 13.744660 -0.541519 3.217917 5.080951 0.602712 -0.012118 0.834868 -0.127101 0.000000 0.000000 0.000000 0.663934 3.557236 1.127106 -2.676016 1.422483 1.558009 -12.009426 15.786900 3.038592 0.000000 0.000000 0.000000 1.624051 4.598535 0.732967 -0.844525 2.134686 -3.818283 2.222881 0.094836 -1.688920 51.913806 -13.740933 -51.507584 4.221168 -82.102405 4.097206 0.000000 0.000000 0.000000 2.529776 4.473624 0.163695 0.165846 0.665474 7.236000 8.661474 0.441212 0.047227 -5.298684 32.456536 59.372990 176.584856 70.985357 -178.430264 0.000000 0.000000 0.000000 
13.787806 86.456779 120.944214 0.000000 0.000000 0.000000 -3.150848 4.271063 -13.409527 -45.290131 0.689225 -13.825699 47.556182 9.032222 -1.240337 -6.342371 10.782411 22.473042 -3.658161 -0.072375 -1.421037 0.000000 0.000000 0.000000 4.837423 14.904379 -16.165815 -7.896573 5.393544 -12.080722 78.490608 -0.320223 -2.182950 13.466789 -11.211901 -1.568372 -7.606148 1.520670 0.759712 0.000000 0.000000 0.000000 -4.684557 13.150259 -12.593071 5.127411 11.266996 -1.874436 3.738989 3.684339 0.488819 0.188851 0.332813 -0.945657 0.000000 0.000000 0.000000 0.391762 2.074681 0.942093 -1.900880 2.580888 1.602300 -9.843526 19.414850 2.800259 0.000000 0.000000 0.000000 2.088271 2.972246 0.435494 -0.750290 1.301241 -4.540957 2.556820 -0.989032 -4.000146 37.618810 -16.343878 -53.168235 3.590388 -76.965550 4.960072 0.000000 0.000000 0.000000 2.838474 2.889838 0.091654 -0.099232 -0.424204 8.102913 6.701506 1.054352 1.660360 11.129341 24.156175 57.547773 174.330046 75.902533 -175.507120 0.000000 0.000000 0.000000 
17.771076 84.690201 141.055771 0.000000 0.000000 0.000000 -4.550555 9.535795 -11.871528 -35.784649 1.377360 -15.897672 57.006579 8.472902 -1.714373 -12.864843 8.767469 25.829634 -7.377372 0.361027 -1.149852 0.000000 0.000000 0.000000 3.638651 23.266783 -15.325937 -25.213001 9.522676 -10.593324 88.018298 -1.669558 -2.107417 11.968645 -14.715865 -3.848934 -4.160079 1.068321 0.394642 0.000000 0.000000 0.000000 -6.127430 19.061181 -11.095860 5.827635 6.660144 -2.408509 4.100805 1.552894 0.319735 0.212793 0.189293 -1.054555 0.000000 0.000000 0.000000 0.285800 -0.089547 0.766551 -0.741746 3.892506 1.152302 -7.802471 23.272259 2.857566 0.000000 0.000000 0.000000 2.596576 0.671122 0.293758 -0.674465 0.269108 -5.092910 1.810567 -1.073937 -6.667981 21.352529 -18.810723 -52.968059 2.370890 -74.110312 5.091966 0.000000 0.000000 0.000000 2.958850 0.621405 0.080337 -0.360300 -2.382047 7.867373 3.946498 2.314062 2.301868 25.716053 14.486592 57.404421 171.843830 79.169290 -172.380410 0.000000 0.000000 0.000000 
22.022190 85.778229 161.139709 0.000000 0.000000 0.000000 -4.512181 14.999329 -11.370412 -24.501000 1.845330 -16.111393 61.187171 6.443706 -0.927429 -13.164437 6.564565 25.861027 -12.394088 0.489931 -0.274407 0.000000 0.000000 0.000000 2.220333 28.906754 -14.268280 -42.984870 12.897574 -7.684865 88.412339 -2.243154 -2.356755 12.919796 -14.348397 -3.685816 -2.456618 0.567100 -0.140700 0.000000 0.000000 0.000000 -5.423099 22.662358 -10.694455 5.218286 0.856717 -2.202200 4.200342 -0.847234 0.207881 0.986404 0.018053 -1.029858 0.000000 0.000000 0.000000 0.339856 -2.382867 0.631770 0.740771 5.002597 0.525983 -6.371774 26.991933 3.219264 0.000000 0.000000 0.000000 2.870909 -1.767853 0.457034 -0.655005 -0.504000 -5.144284 0.571945 0.351600 -8.568816 6.497798 -20.381122 -50.600097 0.763172 -77.433663 4.265669 0.000000 0.000000 0.000000 2.871475 -1.834595 0.109129 -0.543973 -4.813442 6.286977 1.839668 4.143065 1.835826 37.339603 5.592197 57.954975 173.308332 77.955312 -173.368356 0.000000 0.000000 0.000000 
26.873796 89.321243 180.237869 0.000000 0.000000 0.000000 -2.841727 19.952086 -11.563117 -12.092381 1.951688 -14.947604 57.820563 4.931432 -0.102523 -9.192389 5.380609 25.050581 -16.621231 0.247020 0.871307 0.000000 0.000000 0.000000 0.977366 30.914546 -13.011971 -57.109042 15.317099 -4.342855 79.426747 -1.943592 -2.716368 17.237506 -10.870271 -0.895080 -1.088638 0.095653 -0.617286 0.000000 0.000000 0.000000 -2.546880 24.001102 -11.423268 3.517460 -4.882479 -1.834904 4.037257 -3.002375 0.204189 2.027999 0.064273 -0.746513 0.000000 0.000000 0.000000 0.590724 -4.377717 0.581548 2.221843 5.523832 0.219584 -5.897393 30.538964 3.669183 0.000000 0.000000 0.000000 2.729323 -3.864278 0.859279 -0.693497 -0.866928 -4.859306 -0.650007 2.858002 -8.355107 -4.654448 -20.281837 -46.579455 -7.938793 -87.194250 -4.594176 0.000000 0.000000 0.000000 2.572974 -4.074087 0.192848 -0.611973 -7.087110 3.901272 0.802086 5.968841 0.374693 46.069322 -1.308310 57.785012 176.382573 72.946379 -176.194128 0.000000 0.000000 0.000000 
